PathFileType	4	(X/Y/Z)	/Users/itak/Documents/Research/Walk-IL/dataset/trc/00245_00009.trc
DataRate	CameraRate	NumFrames	NumMarkers	Units	OrigDataRate	OrigDataStartFrame	OrigNumFrames
100.000000	100.000000	4	53	mm	100.000000	293	782
Frame#	Time	RPSI			LPSI			L3			STRN			T10			C7			CLAV			RBAK			LBAK			LSHO			LUPA			LAEL			LAOL			LWTS			LWPS			LFRA			LIFD			LHPS			LHTS			RSHO			RUPA			RAEL			RAOL			RWTS			RWPS			RFRA			RIFD			RHTS			RHPS			RBHD			LFHD			RFHD			LBHD			LHIP			RHIP			RASI			LASI			LKNE			LTHI			LANK			LTIP			LTOE			LMT1			LMT5			LHEE			RKNE			RTHI			RANK			RTIP			RTOE			RMT1			RMT5			RHEE			
		X1	Y1	Z1	X2	Y2	Z2	X3	Y3	Z3	X4	Y4	Z4	X5	Y5	Z5	X6	Y6	Z6	X7	Y7	Z7	X8	Y8	Z8	X9	Y9	Z9	X10	Y10	Z10	X11	Y11	Z11	X12	Y12	Z12	X13	Y13	Z13	X14	Y14	Z14	X15	Y15	Z15	X16	Y16	Z16	X17	Y17	Z17	X18	Y18	Z18	X19	Y19	Z19	X20	Y20	Z20	X21	Y21	Z21	X22	Y22	Z22	X23	Y23	Z23	X24	Y24	Z24	X25	Y25	Z25	X26	Y26	Z26	X27	Y27	Z27	X28	Y28	Z28	X29	Y29	Z29	X30	Y30	Z30	X31	Y31	Z31	X32	Y32	Z32	X33	Y33	Z33	X34	Y34	Z34	X35	Y35	Z35	X36	Y36	Z36	X37	Y37	Z37	X38	Y38	Z38	X39	Y39	Z39	X40	Y40	Z40	X41	Y41	Z41	X42	Y42	Z42	X43	Y43	Z43	X44	Y44	Z44	X45	Y45	Z45	X46	Y46	Z46	X47	Y47	Z47	X48	Y48	Z48	X49	Y49	Z49	X50	Y50	Z50	X51	Y51	Z51	X52	Y52	Z52	X53	Y53	Z53	

294	2.93	-495.24609375	1010.019165039062	115.2583084106445	-614.6195068359375	1019.501220703125	97.96086120605469	-561.6455688476562	1099.5234375	113.1369857788086	-520.6067504882812	1283.884399414062	-133.5162811279297	-546.7006225585938	1226.713134765625	116.0139617919922	-527.0015258789062	1487.815063476562	56.11203002929688	-515.0809936523438	1400.940063476562	-107.088737487793	-471.3607788085938	1345.337158203125	139.9351043701172	-639.7764892578125	1455.120849609375	66.32478332519531	-688.5930786132812	1458.779418945312	-27.3651008605957	-776.5800170898438	1347.503173828125	-0.02789345756173134	-827.0285034179688	1142.054321289062	-8.375777244567871	-783.619873046875	1122.441162109375	65.65528106689453	-793.1492309570312	901.5791625976562	-92.82497406005859	-875.0706176757812	895.5320434570312	-70.62507629394531	-852.7002563476562	1037.0517578125	-29.58292961120605	-827.7489624023438	709.054443359375	-90.1185302734375	-882.3694458007812	807.3704223632812	-84.87905883789062	-826.1716918945312	802.3643188476562	-123.9209365844727	-355.634521484375	1435.538940429688	16.09404563903809	-294.8592224121094	1368.143798828125	44.73530197143555	-269.4031066894531	1087.99365234375	78.85154724121094	-362.6815490722656	1083.739135742188	100.7233505249023	-296.9454345703125	874.6724243164062	-61.62485885620117	-241.2487030029297	859.3777465820312	0.05541704222559929	-254.6600189208984	1019.050659179688	55.11508941650391	-300.8958129882812	681.6053466796875	-79.04221343994141	-276.7739868164062	754.1055908203125	-99.1614990234375	-234.6655120849609	753.57763671875	-39.98499298095703	-475.3848571777344	1648.796264648438	16.49695205688477	-505.2700805664062	1676.74853515625	-207.2549591064453	-409.8912658691406	1668.303588867188	-177.8724212646484	-588.7191162109375	1661.148315429688	-66.10126495361328	-734.06494140625	972.4035034179688	-34.22829437255859	-374.9607238769531	966.7238159179688	37.30423355102539	-389.6930847167969	1015.034423828125	-63.28761672973633	-664.09912109375	1016.866455078125	-116.5187835693359	-659.2952270507812	525.4417114257812	-230.6943054199219	-698.4379272460938	654.1177978515625	-175.6689300537109	-691.4920654296875	36.15468978881836	-231.3532562255859	-682.2879638671875	292.8221740722656	-234.3584136962891	-542.417236328125	47.9715461730957	-396.0027465820312	-535.468017578125	44.19524765014648	-315.66015625	-645.8223876953125	33.08597564697266	-351.813720703125	-671.2982177734375	45.31289672851562	-153.6377716064453	-450.9314880371094	486.8375854492188	51.4881591796875	-381.3229675292969	741.8919067382812	-5.91605281829834	-514.311279296875	68.15538024902344	312.4744567871094	-481.964599609375	368.6908874511719	86.30352020263672	-592.0380859375	43.48918914794922	117.7091598510742	-623.8311157226562	48.31370544433594	178.7637329101562	-507.7158508300781	40.8386344909668	203.9704742431641	-559.3563842773438	95.24327850341797	381.349609375	
295	2.94	-496.6983337402344	1010.297424316406	107.2426834106445	-615.8616333007812	1019.990478515625	88.76252746582031	-563.1607055664062	1100.267211914062	104.7466888427734	-519.4815063476562	1285.066284179688	-140.9909210205078	-548.532958984375	1227.404052734375	107.958366394043	-528.6823120117188	1488.699096679688	48.8751220703125	-514.42333984375	1402.091796875	-114.3104629516602	-474.0813293457031	1346.077758789062	133.1534118652344	-641.6350708007812	1455.889038085938	57.43663787841797	-689.0333251953125	1459.657592773438	-36.99641036987305	-777.3457641601562	1348.211669921875	-11.81652069091797	-827.4324951171875	1142.698486328125	-23.16568565368652	-785.4111328125	1122.478271484375	51.57876968383789	-791.7860107421875	903.0042114257812	-108.9348754882812	-874.2421264648438	896.8062744140625	-88.41146087646484	-852.598876953125	1037.926879882812	-45.6463623046875	-826.6194458007812	710.5166015625	-108.7602233886719	-881.3163452148438	808.8085327148438	-103.7044525146484	-824.2319946289062	804.1287841796875	-141.6072692871094	-356.6881713867188	1436.623657226562	11.07378578186035	-296.2812805175781	1369.227172851562	40.47443008422852	-271.6437683105469	1089.191162109375	75.57105255126953	-365.3401184082031	1085.00634765625	95.681884765625	-295.5794372558594	874.7779541015625	-63.81060028076172	-241.3164520263672	860.1088256835938	-0.7004492282867432	-256.2622375488281	1020.208801269531	52.65019989013672	-298.7420959472656	681.4979248046875	-79.47491455078125	-274.3686218261719	753.8506469726562	-99.70624542236328	-233.6573028564453	753.982421875	-39.6151008605957	-476.63818359375	1649.687133789062	10.32504081726074	-503.35009765625	1678.119995117188	-213.7503051757812	-408.3628234863281	1669.705688476562	-183.0417938232422	-588.8062744140625	1662.132934570312	-73.86723327636719	-734.1005859375	973.4835815429688	-44.76990127563477	-375.5746154785156	967.262939453125	30.35248756408691	-389.504150390625	1016.035400390625	-70.21855926513672	-663.4373779296875	1018.184020996094	-126.2808303833008	-658.6032104492188	525.3939819335938	-238.3532409667969	-697.6766357421875	654.9412841796875	-184.7639923095703	-691.5543212890625	36.10826873779297	-231.5963897705078	-681.96044921875	292.627197265625	-238.6253967285156	-542.1820068359375	46.49647521972656	-396.3611145019531	-535.3262939453125	43.68680572509766	-315.8948974609375	-646.2025146484375	32.93885040283203	-352.2198181152344	-671.3999633789062	45.52246475219727	-153.9791717529297	-449.5417175292969	486.8909301757812	41.18704223632812	-381.531494140625	742.5303344726562	-13.83180046081543	-514.7874755859375	72.56856536865234	310.6065368652344	-480.1966857910156	368.8870849609375	77.42511749267578	-591.982666015625	43.48464965820312	117.478157043457	-624.06298828125	49.51867294311523	177.6916198730469	-508.0941162109375	41.28290939331055	203.2858581542969	-559.9541015625	102.8636627197266	377.9871215820312	
296	2.95	-498.1825866699219	1010.726379394531	99.34135437011719	-617.0877685546875	1020.67919921875	79.58013153076172	-564.7115478515625	1101.202880859375	96.38400268554688	-518.2969970703125	1286.388427734375	-148.4144134521484	-550.4148559570312	1228.26171875	99.94182586669922	-530.3165893554688	1489.743774414062	41.64397811889648	-513.7072143554688	1403.393432617188	-121.4997177124023	-476.7036437988281	1347.011108398438	126.3841018676758	-643.4180908203125	1456.802124023438	48.52611541748047	-689.3589477539062	1460.702270507812	-46.60573577880859	-778.0074462890625	1349.103515625	-23.60126686096191	-827.6581420898438	1143.54931640625	-37.948974609375	-787.0010986328125	1122.713256835938	37.482421875	-790.1349487304688	904.6929321289062	-125.0409622192383	-873.1109619140625	898.3085327148438	-106.1932144165039	-852.2568969726562	1039.010864257812	-61.69376373291016	-824.9937133789062	712.2763671875	-127.6722869873047	-879.8832397460938	810.4988403320312	-122.647102355957	-821.937744140625	806.2406616210938	-159.4207305908203	-357.7433776855469	1437.869018554688	6.050277709960938	-297.6873168945312	1370.486328125	36.19588470458984	-273.8217468261719	1090.563842773438	72.18363952636719	-367.8655700683594	1086.45263671875	90.63092041015625	-294.3190002441406	875.0967407226562	-66.02726745605469	-241.4794464111328	861.0387573242188	-1.56516695022583	-257.8687744140625	1021.552185058594	50.06948089599609	-296.869873046875	681.6004028320312	-79.87720489501953	-272.2102355957031	753.7997436523438	-100.2625045776367	-232.8421936035156	754.5794067382812	-39.32908630371094	-477.8100280761719	1650.729370117188	4.103413105010986	-501.3633728027344	1679.579345703125	-220.2395172119141	-406.7772521972656	1671.18017578125	-188.2158660888672	-588.7915649414062	1663.265747070312	-81.64076232910156	-734.0462036132812	974.6801147460938	-55.35663604736328	-376.203125	967.9216918945312	23.57234382629395	-389.2614135742188	1017.159973144531	-76.98909759521484	-662.6883544921875	1019.610961914062	-136.0078735351562	-658.1226806640625	525.177978515625	-245.1715240478516	-697.2223510742188	655.5701904296875	-193.1416931152344	-691.59765625	36.058837890625	-231.7329559326172	-681.732421875	292.3882446289062	-242.2780456542969	-541.941650390625	45.54349517822266	-396.4555053710938	-535.1339111328125	43.39455032348633	-315.9380187988281	-646.4688720703125	32.9984016418457	-352.437744140625	-671.4964599609375	45.60769271850586	-154.1669616699219	-447.6261596679688	486.886962890625	30.24046516418457	-381.4952087402344	743.3131103515625	-21.79217529296875	-515.1928100585938	77.43938446044922	308.3410949707031	-477.8639221191406	369.1433410644531	67.92609405517578	-591.9530029296875	43.48284530639648	117.3639831542969	-624.3330688476562	50.82270812988281	176.5365753173828	-508.4617919921875	41.80335998535156	202.4756164550781	-560.4745483398438	111.1222152709961	373.9202880859375	
297	2.96	-499.7185668945312	1011.313232421875	91.58207702636719	-618.3123779296875	1021.588317871094	70.43128204345703	-566.3231201171875	1102.286987304688	88.04891204833984	-517.0303344726562	1287.823486328125	-155.7821197509766	-552.3816528320312	1229.251342773438	91.97761535644531	-531.9207763671875	1490.92138671875	34.42607116699219	-512.9146728515625	1404.815307617188	-128.6518249511719	-479.2514953613281	1348.1103515625	119.6370086669922	-645.1287231445312	1457.828979492188	39.58452606201172	-689.568359375	1461.885375976562	-56.20414352416992	-778.5709228515625	1350.155029296875	-35.38488388061523	-827.7092895507812	1144.589111328125	-52.6797981262207	-788.3864135742188	1123.128295898438	23.40147590637207	-788.203369140625	906.6436157226562	-141.1264190673828	-871.6705932617188	900.018798828125	-123.9337005615234	-851.685791015625	1040.283081054688	-77.68936920166016	-822.8572998046875	714.3392944335938	-146.8868408203125	-878.0525512695312	812.432861328125	-141.6886749267578	-819.2866821289062	808.7128295898438	-177.3566741943359	-358.8025207519531	1439.254272460938	1.057986259460449	-299.0856628417969	1371.903686523438	31.94903373718262	-275.9199523925781	1092.092651367188	68.70899200439453	-370.2448120117188	1088.048217773438	85.58644866943359	-293.1997375488281	875.6195068359375	-68.28609466552734	-241.7315826416016	862.1600341796875	-2.582780361175537	-259.4606323242188	1023.061767578125	47.36953353881836	-295.2974853515625	681.8988037109375	-80.27042388916016	-270.3317565917969	753.9457397460938	-100.8677978515625	-232.2129974365234	755.3618774414062	-39.17981338500977	-478.9011535644531	1651.8955078125	-2.158130168914795	-499.3106079101562	1681.103881835938	-226.7147521972656	-405.1382446289062	1672.704345703125	-193.3843383789062	-588.6697387695312	1664.520629882812	-89.40946960449219	-733.875732421875	975.9820556640625	-65.99985504150391	-376.8573303222656	968.6717529296875	17.01733207702637	-388.9880676269531	1018.361694335938	-83.54247283935547	-661.832763671875	1021.120178222656	-145.6810455322266	-657.8268432617188	524.8404541015625	-251.1601257324219	-696.98779296875	656.035400390625	-200.7987518310547	-691.63427734375	35.99419784545898	-231.7978515625	-681.615966796875	292.1173095703125	-245.3480224609375	-541.7020874023438	44.97646713256836	-396.3522338867188	-534.9213256835938	43.24155044555664	-315.8504943847656	-646.6265258789062	33.15518951416016	-352.5221252441406	-671.6066284179688	45.6103630065918	-154.2445373535156	-445.1604309082031	486.8063049316406	18.70839881896973	-381.2280578613281	744.2098388671875	-29.75433540344238	-515.4873657226562	82.83123779296875	305.6038818359375	-474.94873046875	369.4698486328125	57.81874465942383	-591.927978515625	43.47561264038086	117.344108581543	-624.6142578125	52.23490142822266	175.2581634521484	-508.7984313964844	42.45476531982422	201.5155792236328	-560.9093017578125	119.9872741699219	369.0624694824219	
